<svg xmlns="http://www.w3.org/2000/svg" viewBox="0 0 624.86 116.46" width="624.86" height="116.46" role="img">
<g transform="translate(8.03 8.03)"><g transform="scale(0.1) translate(-34.00 740.00) scale(1 -1)"><g transform="translate(0.00 0)"><path d="M34 277Q34 362 71.5 427.0Q109 492 174.0 527.5Q239 563 319 563Q399 563 464.0 527.5Q529 492 566.5 427.0Q604 362 604 277Q604 192 565.5 127.0Q527 62 461.5 26.5Q396 -9 315 -9Q235 -9 171.0 26.5Q107 62 70.5 127.0Q34 192 34 277ZM460 277Q460 356 418.5 398.5Q377 441 317 441Q257 441 216.5 398.5Q176 356 176 277Q176 198 215.5 155.5Q255 113 315 113Q353 113 386.5 131.5Q420 150 440.0 187.0Q460 224 460 277Z" fill="#10243E"/></g><g transform="translate(623.00 0)"><path d="M392 563Q463 563 520.5 528.0Q578 493 611.5 428.5Q645 364 645 279Q645 194 611.5 128.5Q578 63 520.5 27.0Q463 -9 392 -9Q331 -9 284.5 16.0Q238 41 209 79V-264H69V554H209V474Q236 512 283.5 537.5Q331 563 392 563ZM355 440Q317 440 283.5 420.5Q250 401 229.5 364.0Q209 327 209 277Q209 227 229.5 190.0Q250 153 283.5 133.5Q317 114 355 114Q394 114 427.5 134.0Q461 154 481.5 191.0Q502 228 502 279Q502 329 481.5 365.5Q461 402 427.5 421.0Q394 440 355 440Z" fill="#10243E"/></g><g transform="translate(1286.00 0)"><path d="M597 325V0H457V306Q457 372 424.0 407.5Q391 443 334 443Q276 443 242.5 407.5Q209 372 209 306V0H69V740H209V485Q236 521 281.0 541.5Q326 562 381 562Q444 562 493.0 534.5Q542 507 569.5 453.5Q597 400 597 325Z" fill="#10243E"/></g><g transform="translate(1932.00 0)"><path d="M286 563Q348 563 394.5 538.0Q441 513 469 475V554H610V0H469V81Q442 42 394.5 16.5Q347 -9 285 -9Q215 -9 157.5 27.0Q100 63 66.5 128.5Q33 194 33 279Q33 363 66.5 428.0Q100 493 157.5 528.0Q215 563 286 563ZM322 440Q283 440 250.0 421.0Q217 402 196.5 365.5Q176 329 176 279Q176 229 196.5 191.5Q217 154 250.5 134.0Q284 114 322 114Q361 114 395.0 133.5Q429 153 449.0 189.5Q469 226 469 277Q469 328 449.0 364.5Q429 401 395.0 420.5Q361 440 322 440Z" fill="#10243E"/></g><g transform="translate(2595.00 0)"><path d="M209 740V0H69V740Z" fill="#10243E"/></g><g transform="translate(2858.00 0)"><path d="M34 277Q34 362 71.5 427.0Q109 492 174.0 527.5Q239 563 319 563Q399 563 464.0 527.5Q529 492 566.5 427.0Q604 362 604 277Q604 192 565.5 127.0Q527 62 461.5 26.5Q396 -9 315 -9Q235 -9 171.0 26.5Q107 62 70.5 127.0Q34 192 34 277ZM460 277Q460 356 418.5 398.5Q377 441 317 441Q257 441 216.5 398.5Q176 356 176 277Q176 198 215.5 155.5Q255 113 315 113Q353 113 386.5 131.5Q420 150 440.0 187.0Q460 224 460 277Z" fill="#10243E"/></g><g transform="translate(3704.00 0)"><path d="M397 0 209 236V0H69V740H209V319L395 554H577L333 276L579 0Z" fill="#10243E"/></g><g transform="translate(4273.00 0)"><path d="M580 235H175Q180 175 217.0 141.0Q254 107 308 107Q386 107 419 174H570Q546 94 478.0 42.5Q410 -9 311 -9Q231 -9 167.5 26.5Q104 62 68.5 127.0Q33 192 33 277Q33 363 68.0 428.0Q103 493 166.0 528.0Q229 563 311 563Q390 563 452.5 529.0Q515 495 549.5 432.5Q584 370 584 289Q584 259 580 235ZM439 329Q438 383 400.0 415.5Q362 448 307 448Q255 448 219.5 416.5Q184 385 176 329Z" fill="#10243E"/></g><g transform="translate(4875.00 0)"><path d="M580 235H175Q180 175 217.0 141.0Q254 107 308 107Q386 107 419 174H570Q546 94 478.0 42.5Q410 -9 311 -9Q231 -9 167.5 26.5Q104 62 68.5 127.0Q33 192 33 277Q33 363 68.0 428.0Q103 493 166.0 528.0Q229 563 311 563Q390 563 452.5 529.0Q515 495 549.5 432.5Q584 370 584 289Q584 259 580 235ZM439 329Q438 383 400.0 415.5Q362 448 307 448Q255 448 219.5 416.5Q184 385 176 329Z" fill="#10243E"/></g><g transform="translate(5477.00 0)"><path d="M392 563Q463 563 520.5 528.0Q578 493 611.5 428.5Q645 364 645 279Q645 194 611.5 128.5Q578 63 520.5 27.0Q463 -9 392 -9Q331 -9 284.5 16.0Q238 41 209 79V-264H69V554H209V474Q236 512 283.5 537.5Q331 563 392 563ZM355 440Q317 440 283.5 420.5Q250 401 229.5 364.0Q209 327 209 277Q209 227 229.5 190.0Q250 153 283.5 133.5Q317 114 355 114Q394 114 427.5 134.0Q461 154 481.5 191.0Q502 228 502 279Q502 329 481.5 365.5Q461 402 427.5 421.0Q394 440 355 440Z" fill="#10243E"/></g></g></g>
</svg>
